<?xml version="1.0" encoding="iso-8859-1"?>
<!-- Uploaded to: SVG Repo, www.svgrepo.com, Generator: SVG Repo Mixer Tools -->
<svg xmlns="http://www.w3.org/2000/svg" xmlns:xlink="http://www.w3.org/1999/xlink" version="1.1" id="Layer_1"  viewBox="0 0 448.433 448.433" xml:space="preserve" width="512" height="512">
<g>
	<path style="fill:#F4A026;" d="M372.546,264.039c-10.557,0-20.682-2.366-30.094-7.033c-25.207-12.507-51.31-18.848-77.586-18.848   h-52.86v-84h52.86c26.665,0,53.229-6.387,76.823-18.47c9.617-4.917,19.997-7.409,30.856-7.409c1.245,0,2.375,0.025,3.454,0.079   c34.451,1.712,62.715,30.04,64.348,64.491c0.894,18.766-5.733,36.575-18.659,50.146   C408.741,256.568,391.29,264.039,372.546,264.039z"/>
	<path style="fill:#E46A53;" d="M157.803,284.675c-0.847,0-1.734-0.055-2.639-0.163c-11.678-1.421-21.198-11.205-22.651-23.266   c-1.54-12.813,1.545-23.195,9.171-30.859c13.596-13.687,39.01-15.731,52.949-15.731c3.483,0,6.947,0.132,10.017,0.38l7.355,0.595   v22.409l-6.244,1.404c-14.111,3.175-25.106,7.378-29.468,11.257c-0.051,0.051-0.114,0.115-0.179,0.18   c-0.03,0.085-0.088,0.271-0.1,0.566c0.002,0.605,0.007,2.637-0.012,3.465c-0.196,12.676-2.866,21.455-7.936,26.034   C165.345,283.416,161.887,284.675,157.803,284.675z"/>
	<path style="fill:#E46A53;" d="M148.418,331.966c-8.494,0-16.684-1.742-24.339-5.179c-23.417-10.519-33.051-29.588-28.753-56.792   l-1.652,1.726c-7.727,8.07-17.576,12.162-29.275,12.164c-0.001,0-0.004,0-0.004,0c-15.78,0-31.849-7.723-42.552-14.202   l-14.458-8.752l15.934-5.634c23.734-8.393,30.824-16.214,32.938-20.129c0.347-0.63,0.607-1.237,0.825-1.904l1.452-4.442   l4.583-0.917c9.313-1.862,19.702-4.871,30.882-8.942l0.006,0.011c1.456-0.806,9.108-4.71,20.521-4.71   c7.738,0,15.468,1.775,22.974,5.276l9.638,4.495l-6.991,8.014c-6.596,7.562-9.09,17.109-7.626,29.189   c1.479,12.275,10.79,21.842,22.644,23.27c0.892,0.107,1.771,0.162,2.616,0.162c4.098,0,7.563-1.256,10.302-3.732   c3.436-3.111,5.704-7.939,6.933-14.757l2.864-15.896l10.908,11.911c5.479,5.983,12.198,15.322,13.092,25.837   c0.84,9.75-3.281,19.038-12.249,27.595C178.766,326.009,163.744,331.966,148.418,331.966z"/>
	<path style="fill:#E46A53;" d="M42.392,230.203c-3.446,0-6.709-0.239-9.697-0.713l-0.023-15.799   c8.653-1.396,16.717-5.816,22.708-12.446c18.813-20.819,38.643-27.681,53.92-29.282c-1.217,0.125-2.43,0.279-3.635,0.464   l-7.353,1.124l-1.656-7.252c-6.649-7.011-15.024-10.416-25.59-10.416c-13.11,0-26.704,5.389-35.8,9.91l-16.642,8.272l5.43-17.773   c3.41-11.161,10.415-26.165,24.426-34.268c6.5-3.754,13.961-5.656,22.18-5.656c11.856,0,25.542,4.007,40.678,11.909   c44.478,23.208,71.624,28.08,86.564,28.08c0.001,0,0.001,0,0.001,0c1.878,0,3.683-0.079,5.364-0.234l8.738-0.81v60.225   l-8.531-0.567c-2.89-0.192-6.04-0.294-9.11-0.294c-12.073,0-29.283,1.476-42.705,8.508l-4.146,2.172l-3.924-2.548   c-0.126-0.082-0.249-0.166-0.373-0.25l0.049,0.027c-9.219-5.508-18.847-8.32-28.548-8.32c-11.05,0-18.854,3.734-20.306,4.483   l-0.459,0.237l-0.486,0.176C73.205,226.488,56.021,230.203,42.392,230.203z"/>
	<g>
		<circle style="fill:#050000;" cx="174.667" cy="185.963" r="8"/>
		<path style="fill:#050000;" d="M412.002,186.182c-4.413,0.21-7.821,3.958-7.611,8.371c0.421,8.85-2.691,17.23-8.763,23.598    c-6.08,6.375-14.276,9.887-23.08,9.887c-4.97,0-9.713-1.104-14.098-3.279c-3.959-1.967-8.759-0.348-10.722,3.609    c-1.964,3.958-0.348,8.759,3.61,10.723c6.615,3.283,13.751,4.947,21.211,4.947c13.222,0,25.53-5.273,34.659-14.846    c9.121-9.564,13.796-22.136,13.166-35.398C420.164,189.381,416.439,185.976,412.002,186.182z"/>
		<path style="fill:#050000;" d="M448.345,192.469c-0.9-18.76-8.75-36.46-22.13-49.87c-13.37-13.4-31.06-21.3-49.81-22.23    c-1.28-0.06-2.58-0.09-3.86-0.09c-12.15,0-23.76,2.79-34.51,8.29c-22.47,11.51-47.77,17.59-73.17,17.59h-52.86    c-1.36,0-2.63,0.34-3.75,0.93c0,0-3.12,1.28-10.29,1.28c-12.86,0-38.73-4.13-82.93-27.19c-28.27-14.75-52.01-16.8-70.56-6.08    c-23.79,13.75-31.2,44.52-31.8,58.86c-0.13,3.05,1.49,5.91,4.17,7.36c1.19,0.66,2.51,0.98,3.82,0.98c1.62,0,3.24-0.5,4.62-1.47    c0.42-0.3,40.6-27.77,62.32-11.89c-12.22,4.63-25.43,12.85-38.16,26.94c-5.43,6-12.99,9.73-20.75,10.21    c-6.19,0.38-11.31-1.14-15.64-4.66c-2.43-1.98-5.79-2.36-8.6-0.97s-4.55,4.29-4.45,7.42c0.16,5.18,3.24,15.83,13.71,22.92    c7.14,4.83,16.43,7.3,27.78,7.41c-6.12,3.88-16.86,8.92-35.65,14.19c-2.87,0.8-5.05,3.13-5.67,6.04    c-0.62,2.91,0.43,5.92,2.71,7.82c0.6,0.5,14.9,12.27,33.51,19.7c10.12,4.04,19.59,6.05,28.3,6.05c8.01,0,15.36-1.7,21.95-5.08    c2.15,27.89,20.87,41.19,34.16,47.16c8.99,4.03,18.48,6,27.88,6c16.98,0,33.65-6.43,46.48-18.68    c10.82-10.33,15.76-21.82,14.68-34.13c-1.31-15-11.59-27.43-19.64-35.01c6.42-2.4,15.04-4.69,22.54-6.11h52.12    c25.03,0,49.93,6.06,74.02,18.01c10.52,5.22,21.85,7.87,33.66,7.87c20.95,0,40.46-8.35,54.92-23.52    C441.926,233.359,449.336,213.449,448.345,192.469z M193.905,288.709c0.63,7.32-2.58,14.24-9.8,21.13    c-14.96,14.3-37.77,18.17-56.75,9.65c-23.42-10.52-30.3-30.65-21.03-61.56c1.27-4.23-1.13-8.69-5.36-9.96s-8.69,1.13-9.96,5.36    c-1.36,4.52-2.38,8.8-3.11,12.86c-17.79,18.58-45.69,6.47-61.91-3.35c20.05-7.09,32.57-15.09,37.31-23.87    c0.62-1.13,1.06-2.21,1.39-3.22c9.7-1.94,20.38-5.02,32.05-9.27c0.44-0.16,0.86-0.35,1.26-0.58c0.16-0.1,15.58-8.69,36.12,0.89    c-8.05,9.23-11.27,21.13-9.54,35.41c1.92,15.94,14.1,28.38,29.63,30.25c7.54,0.91,14.2-1.02,19.24-5.58    c4.76-4.31,7.89-10.67,9.44-19.27C188.216,273.419,193.246,280.949,193.905,288.709z M204.006,231.639    c-9.6,2.16-25.91,6.62-33.18,13.22c-0.12,0.11-0.81,0.81-0.93,0.96c-0.71,0.9-1.83,2.75-1.88,5.54c0,0.06,0.01,2.47-0.01,3.37    c-0.21,13.56-3.34,18.51-5.3,20.28c-0.98,0.89-2.74,2.02-6.59,1.56c-8.05-0.98-14.64-7.82-15.66-16.28    c-1.25-10.4,1-18.33,6.9-24.26c13.41-13.5,43.41-14.09,56.65-13.02V231.639z M204.006,206.989c-10.21-0.68-36.42-1.18-56.06,9.11    c-0.17-0.11-0.33-0.23-0.51-0.34c-28.47-17.01-52.19-6.44-56.69-4.12c-28.79,10.41-46.31,11.61-56.8,9.95    c10.35-1.67,20.15-6.99,27.37-14.98c33.78-37.38,70.45-25.31,72.03-24.77c4.15,1.47,8.71-0.7,10.19-4.85    c1.49-4.16-0.68-8.74-4.84-10.23c-1.06-0.37-15.07-5.17-34.24-2.24c-0.31-1.36-0.96-2.65-1.99-3.74    c-20.64-21.7-52.01-11.47-70.76-2.15c3.26-10.67,9.54-23.18,20.78-29.68c13.49-7.79,32.05-5.64,55.15,6.42    c51.84,27.05,81.58,30.09,96.37,28.72V206.989z M415.895,237.479c-11.42,11.97-26.81,18.56-43.35,18.56    c-9.32,0-18.25-2.09-26.54-6.2c-26.32-13.06-53.62-19.68-81.14-19.68h-44.86v-68h44.86c27.93,0,55.75-6.69,80.47-19.35    c8.47-4.33,17.62-6.53,27.21-6.53c1.02,0,2.05,0.02,3.06,0.07c30.38,1.51,55.31,26.49,56.75,56.88    C433.145,209.799,427.296,225.509,415.895,237.479z"/>
	</g>
</g>















</svg>