<?xml version="1.0" encoding="iso-8859-1"?>
<!-- Uploaded to: SVG Repo, www.svgrepo.com, Generator: SVG Repo Mixer Tools -->
<svg xmlns="http://www.w3.org/2000/svg" xmlns:xlink="http://www.w3.org/1999/xlink" version="1.1" id="Layer_1"  viewBox="0 0 479.9 479.9" xml:space="preserve" width="512" height="512">
<g>
	<path style="fill:#E46A53;" d="M366.766,386.865c-3.128-14.246-3.2-26.393-2.71-34.075c0.151-2.468,0.244-5.102,0.274-7.81   l0.138-12.349l61.351,28.309l-56.556,37.298L366.766,386.865z"/>
	<path style="fill:#E46A53;" d="M353.798,291.029c-5.882-14.209-13.902-27.304-23.838-38.919l-12.057-14.094l93.99,4.584   l-53.191,60.28L353.798,291.029z"/>
	<path style="fill:#E46A53;" d="M223.419,443.68c-53.866,0-97.689-43.819-97.689-97.68s43.823-97.68,97.689-97.68   c53.861,0,97.681,43.819,97.681,97.68S277.281,443.68,223.419,443.68z M223.419,294.29c-28.519,0-51.72,23.197-51.72,51.71   c0,28.519,23.201,51.72,51.72,51.72c28.513,0,51.71-23.202,51.71-51.72C275.129,317.486,251.932,294.29,223.419,294.29z"/>
	<path style="fill:#B12E2A;" d="M223.419,397.72c-28.519,0-51.72-23.202-51.72-51.72c0-28.513,23.201-51.71,51.72-51.71   c28.513,0,51.71,23.197,51.71,51.71C275.129,374.518,251.932,397.72,223.419,397.72z"/>
	<path style="fill:#F4A026;" d="M391.896,471.911c-7.487,0-14.85-1.314-21.882-3.905c-24.588-9.049-44.648-33.173-59.621-71.699   l-1.289-3.318l1.602-3.179C317.603,376.12,321.1,361.38,321.1,346c0-53.861-43.819-97.68-97.681-97.68   c-40.372,0-77.105,25.41-91.407,63.229l-7.178,18.982l-23.955-58.364c-8.995-21.895-6.542-46.393,5.331-65.836l-6.863,10.914   l-39.022-73.451c-11.648-21.923-6.446-49.579,12.369-65.759l1.263-1.086l-12.341,6.784l0.581-14.169l1.939-45.99   c0.345-8.359,6.068-13.121,11.31-14.787c1.112-0.354,2.893-0.775,5.056-0.775c5.057,0,9.574,2.272,12.721,6.399l69.723,91.288   l-7.591,3.263c5.193-2.074,10.733-3.146,16.35-3.146c13.611,0,26.255,6.113,34.689,16.771l0.168,0.22l64.031,86.932l-19.606-3.395   c-7.072-1.224-14.298-1.845-21.477-1.845c-1.859,0-3.745,0.042-5.605,0.125l-0.454,0.02l-0.246-0.017   c0.05,0.005,0.217,0.023,0.257,0.023c1.976-0.097,4.021-0.147,6.041-0.147c30.498,0,60.644,11.39,84.881,32.072   c24.217,20.664,41.092,49.409,47.517,80.94c2.224,10.929,2.948,22.8,2.154,35.284c-0.581,9.045-0.466,27.345,6.833,48.335   c7.383,21.247,20.163,39.936,37.985,55.55l12.083,10.585l-15.729,3.265C400.821,471.447,396.336,471.911,391.896,471.911z"/>
	<g>
		<path d="M223.419,286.29c-32.93,0-59.72,26.78-59.72,59.71c0,32.93,26.79,59.72,59.72,59.72c32.92,0,59.71-26.79,59.71-59.72    C283.129,313.07,256.34,286.29,223.419,286.29z M223.419,389.72c-24.11,0-43.72-19.62-43.72-43.72c0-24.1,19.61-43.71,43.72-43.71    c24.1,0,43.71,19.61,43.71,43.71C267.129,370.1,247.52,389.72,223.419,389.72z"/>
		<path d="M433.799,360.34c-0.22-2.9-1.99-5.45-4.63-6.66l-57.7-26.64c-0.43-3.79-0.99-7.51-1.73-11.12    c-0.73-3.56-1.58-7.08-2.56-10.56l50.71-57.47c2.03-2.31,2.57-5.57,1.37-8.4c-1.2-2.84-3.91-4.73-6.98-4.88l-93.12-4.55    c-0.29-0.24-0.58-0.5-0.87-0.75c-12.6-10.55-26.65-18.7-41.51-24.24c-0.24-0.6-0.55-1.18-0.95-1.72l-62.9-85.39    c-0.05-0.07-0.1-0.13-0.15-0.2c-11.22-14.27-28.56-21.23-45.64-19.74L99.58,9.55c-6.27-8.21-16.68-11.5-26.53-8.4    c-9.85,3.11-16.48,11.79-16.9,22.09c0,0-2.78,66.03-2.76,66.31c-9.45,17.66-10,39.42-0.13,57.99l37.82,71.2    c0.12,0.22,0.26,0.42,0.39,0.62c-5.81,17.85-5.47,37.64,2.01,55.85c0,0,24.38,59.09,24.84,59.66c-0.39,3.66-0.59,7.37-0.59,11.13    c0,58.28,47.41,105.68,105.69,105.68c34.22,0,64.69-16.35,84.02-41.66c15.35,34.5,35.43,56.51,59.81,65.49    c8.77,3.23,17.11,4.39,24.57,4.39c18.28,0,31.22-6.96,31.97-7.37c2.4-1.32,3.95-3.77,4.13-6.5c0.17-2.73-1.06-5.36-3.27-6.98    c-24.83-18.09-38.24-38.96-45.33-57.86l50.9-33.57C432.649,366.02,434.02,363.23,433.799,360.34z M394.889,249.78l-33.7,38.19    c-6.18-14.93-14.68-28.82-25.15-41.06L394.889,249.78z M223.419,435.68c-49.46,0-89.69-40.23-89.69-89.68    c0-49.45,40.23-89.68,89.69-89.68c49.45,0,89.68,40.23,89.68,89.68C313.1,395.45,272.869,435.68,223.419,435.68z M403.6,462.7    c-7.9,1.64-18.85,2.21-30.82-2.2c-22.36-8.23-40.83-30.81-54.93-67.09c7.19-14.27,11.25-30.37,11.25-47.41    c0-58.27-47.41-105.68-105.68-105.68c-45.16,0-83.79,28.47-98.89,68.4l-16.25-39.59c-11.03-26.85-2.76-57.99,20.09-75.84    l38.43-24.41c3.73-2.37,4.83-7.32,2.46-11.05c-2.37-3.73-7.31-4.83-11.04-2.46l-38.75,24.61c-0.21,0.14-0.41,0.28-0.6,0.43    c-7.65,5.91-13.99,13.01-18.94,20.88l-32.54-61.25c-10.01-18.84-5.55-42.12,10.52-55.94l13.32-3.95c4.23-1.25,6.65-5.7,5.4-9.94    c-1.26-4.23-5.71-6.65-9.95-5.4l-14.89,4.41c-0.56,0.17-1.09,0.4-1.6,0.68l1.94-45.99c0.22-5.35,4.45-7.09,5.74-7.5    c1.29-0.41,5.75-1.4,8.99,2.85l63.5,83.14c-53.52,23.01-57.61,24.77-57.61,24.77c-4.08,1.71-5.99,6.4-4.27,10.48    c1.71,4.07,6.4,5.98,10.48,4.26c0,0,53.58-22.59,53.92-22.8c15.62-9.53,35.9-5.89,47.24,8.44l52.23,70.91    c-9.47-1.64-19.11-2.26-28.8-1.83c-5.34-0.37-35.48-0.77-85.89,29.91c-3.77,2.3-4.97,7.22-2.67,11c2.29,3.77,7.21,4.97,10.99,2.67    c49.17-29.93,76.3-27.64,76.48-27.62c0.45,0.05,0.9,0.07,1.35,0.05c61.25-3,117.27,42.77,130.25,106.47    c2.08,10.22,2.76,21.38,2.01,33.18c-0.62,9.65-0.49,29.18,7.26,51.47C371.19,426.38,384.71,446.15,403.6,462.7z M374.58,385.15    c-2.92-13.3-3-24.64-2.54-31.85c0.17-2.77,0.26-5.52,0.29-8.23l37.08,17.11L374.58,385.15z"/>
	</g>
</g>















</svg>