<?xml version="1.0" encoding="iso-8859-1"?>
<!-- Uploaded to: SVG Repo, www.svgrepo.com, Generator: SVG Repo Mixer Tools -->
<svg xmlns="http://www.w3.org/2000/svg" xmlns:xlink="http://www.w3.org/1999/xlink" version="1.1" id="Layer_1"  viewBox="0 0 476.24 476.24" xml:space="preserve" width="512" height="512">
<g>
	<path style="fill:#EFEFEF;" d="M358.377,108.992l2.747,16.657c1.023,6.209,2.956,12.065,5.906,17.904l0.103,0.211   c1.547,3.298,3.348,6.437,5.353,9.33l4.811,6.94l-16.25,10.008c-18.605,11.466-38.717,20.247-59.774,26.097l-25.916,7.2   L358.377,108.992z"/>
	<path style="fill:#EFEFEF;" d="M271.599,196.01c-2.782-2.25-5.806-4.237-8.984-5.905l-6.403-3.359l47.736-118.768l8.462,12.177   c3.709,5.337,8.247,9.964,13.487,13.751l0.178,0.132c6.447,4.938,13.305,8.267,20.965,10.18l12.747,3.183l-82.221,93.436   L271.599,196.01z"/>
	<path style="fill:#EFEFEF;" d="M249.528,185.245c-1.624-0.375-3.122-0.658-4.581-0.862l-6.888-0.967V53.998l12.203,7.534   c5.811,3.587,12.203,6.079,19,7.405l0.163,0.034c4.127,0.895,8.283,1.349,12.354,1.349c2.864,0,5.712-0.214,8.464-0.638   l13.872-2.132l-47.917,119.236L249.528,185.245z"/>
	<path style="fill:#EFEFEF;" d="M172.693,67.849l13.688,1.918c2.702,0.378,5.306,0.563,7.959,0.563c4.087,0,8.242-0.456,12.35-1.355   l0.188-0.039c6.789-1.315,13.173-3.802,18.974-7.39l12.208-7.551v129.398l-7.131,0.779c-1.387,0.151-2.816,0.368-4.249,0.643   l-6.474,1.245L172.693,67.849z"/>
	<path style="fill:#EFEFEF;" d="M114.698,107.495l13.15-2.968c8.161-1.842,15.427-5.268,22.213-10.473l0.183-0.136   c5.392-3.897,10.031-8.677,13.791-14.206l8.44-12.413l47.679,118.642l-6.742,3.247c-3.795,1.828-7.39,4.1-10.685,6.753   l-5.964,4.803L114.698,107.495z"/>
	<path style="fill:#EFEFEF;" d="M172.294,195.278c-19.73-5.771-38.599-14.124-56.081-24.825l-17.205-10.516l4.746-6.95   c2.003-2.932,3.771-6.031,5.258-9.213l0.109-0.226c2.727-5.39,4.574-10.764,5.648-16.429l3.051-16.084l80.947,91.987   L172.294,195.278z"/>
	<path style="fill:#F4A026;" d="M290.905,227.341c-1.226-5.77-3.383-11.299-6.415-16.435l-5.597-9.482l10.747-2.393   c25.337-5.642,49.363-15.396,71.41-28.991l16.72-10.31c-4.302-4.687-7.899-10.096-10.683-16.073l-0.059-0.128   c-5.878-11.597-7.863-23.853-6.071-37.463c-13.365-0.388-24.739-4.292-34.761-11.931l-0.219-0.157   c-9.926-7.163-16.801-16.492-21.019-28.521c-7.728,3.272-15.311,4.863-23.18,4.863c-4.075,0-8.223-0.453-12.328-1.345l-0.11-0.021   c-12.161-2.351-22.394-8.044-31.283-17.406c-8.888,9.363-19.117,15.057-31.27,17.406c0,0-8.359,1.375-12.449,1.375   c-7.835,0-15.41-1.589-23.16-4.859c-4.218,12.025-11.092,21.354-21.018,28.517l-0.207,0.149   c-10.035,7.653-21.409,11.563-34.763,11.95c1.791,13.601-0.193,25.853-6.069,37.449l-0.06,0.128   c-2.751,5.916-6.31,11.283-10.578,15.953l17.729,10.839c21.292,13.026,44.416,22.487,68.73,28.121l10.741,2.489l-5.698,9.439   c-3.062,5.071-5.265,10.578-6.548,16.368l-1.771,7.982l-7.941-1.943c-26.975-6.601-52.646-17.282-76.302-31.746l-37.371-22.861   c-6.297-3.857-9.927-10.561-9.713-17.937c0.215-7.395,4.243-13.895,10.778-17.384c6.319-3.365,11.838-6.803,15.463-14.864   l0.1-0.222l0.112-0.215c4.503-8.581,3.043-15.896,1.631-22.971c-1.597-8.021-3.239-16.273,4.194-26.053l0.221-0.29l0.245-0.269   c6.721-7.348,13.297-8.36,19.403-8.36c0.85,0,2.466,0.067,5.033,0.176c2.044,0.086,4.588,0.194,5.457,0.194   c4.602,0,10.042-0.58,15.503-4.877l0.356-0.265c7.226-5.064,8.712-11.612,10.286-18.544c1.806-7.989,3.51-15.528,13.98-20.682   l0.616-0.271c3.163-1.239,6.126-1.841,9.058-1.841c6.149,0,11.103,2.732,15.893,5.375c4.975,2.742,9.663,5.325,15.667,5.325   c1.614,0,5.354-0.672,5.354-0.672c8.573-1.553,12.604-6.878,16.869-12.516c4.734-6.245,9.603-12.666,21.179-13.125h0.635   c11.577,0.459,16.445,6.881,21.153,13.091c4.285,5.663,8.313,10.987,16.912,12.552l0.354,0.072   c1.704,0.391,3.381,0.588,4.984,0.588c6.015,0,10.702-2.583,15.665-5.319c4.804-2.649,9.756-5.381,15.905-5.381   c2.927,0,5.89,0.601,9.058,1.837l0.624,0.275c10.459,5.147,12.165,12.688,13.971,20.672c1.587,6.954,3.08,13.497,10.292,18.557   l0.349,0.259c5.471,4.3,10.914,4.879,15.517,4.879c0.868,0,9.645-0.37,10.5-0.37c6.097,0,12.664,1.011,19.387,8.344l0.476,0.57   c7.446,9.811,5.792,18.07,4.191,26.058c-1.406,7.094-2.856,14.403,1.641,22.971l0.211,0.433   c3.632,8.066,9.191,11.532,15.552,14.927c6.511,3.454,10.547,9.935,10.779,17.327c0.23,7.37-3.38,14.079-9.657,17.95l-36.301,22.38   c-24.567,15.139-51.272,26.167-79.376,32.778l-7.96,1.872L290.905,227.341z"/>
	<path style="fill:#E46A53;" d="M237.12,293.81c-30.327,0-55-24.673-55-55s24.673-55,55-55s55,24.673,55,55   S267.447,293.81,237.12,293.81z"/>
	<path style="fill:#61ACD2;" d="M237.863,468.224c-11.577-0.459-16.445-6.881-21.153-13.091   c-4.285-5.663-8.313-10.987-16.912-12.552c0,0-3.734-0.661-5.338-0.661c-6.015,0-10.702,2.583-15.665,5.319   c-4.804,2.649-9.756,5.381-15.905,5.381c-2.927,0-5.89-0.601-9.058-1.837l-0.624-0.275c-10.459-5.147-12.165-12.688-13.971-20.672   c-1.591-6.961-3.085-13.5-10.292-18.557l-0.349-0.259c-5.471-4.3-10.914-4.879-15.517-4.879c-0.868,0-9.645,0.37-10.5,0.37   c-6.097,0-12.664-1.011-19.387-8.344l-0.476-0.57c-7.446-9.811-5.792-18.07-4.191-26.058c1.406-7.093,2.856-14.403-1.641-22.971   l-0.211-0.433c-3.632-8.066-9.191-11.532-15.552-14.927c-6.511-3.454-10.547-9.935-10.779-17.327   c-0.23-7.369,3.38-14.079,9.657-17.95l36.301-22.38c23.106-14.249,48.681-23.886,78.183-29.461l7.432-1.405l1.819,7.342   c6.095,24.602,28.048,41.784,53.385,41.784c25.468,0,47.445-17.289,53.445-42.044l1.778-7.341l7.432,1.355   c29.855,5.445,55.709,15.027,79.038,29.295l37.371,22.86c6.297,3.857,9.927,10.562,9.713,17.937   c-0.215,7.395-4.243,13.894-10.778,17.384c-6.319,3.365-11.838,6.803-15.463,14.864l-0.212,0.437   c-4.503,8.581-3.043,15.896-1.631,22.971c1.597,8.021,3.239,16.273-4.194,26.053l-0.466,0.559   c-6.721,7.348-13.297,8.36-19.403,8.36c-0.85,0-2.466-0.067-5.033-0.175c-2.044-0.087-4.588-0.195-5.457-0.195   c-4.602,0-10.042,0.58-15.503,4.877l-0.356,0.265c-7.226,5.064-8.712,11.612-10.286,18.544c-1.806,7.989-3.51,15.528-13.98,20.682   l-0.616,0.271c-3.163,1.239-6.126,1.841-9.058,1.841c-6.149,0-11.103-2.732-15.893-5.375c-4.975-2.742-9.663-5.325-15.667-5.325   c-1.614,0-5.354,0.672-5.354,0.672c-8.573,1.553-12.604,6.878-16.869,12.516c-4.734,6.245-9.603,12.666-21.179,13.125H237.863z"/>
	<g>
		<path d="M381.923,309.799l-17.72-10.84c-3.77-2.307-8.693-1.119-10.999,2.649c-2.306,3.769-1.119,8.693,2.649,10.999l10.029,6.135    c-2.226,3.242-4.197,6.695-5.898,10.332c-5.397,10.657-7.889,21.775-7.544,33.773c-11.609,1.604-21.857,5.887-31.132,12.987    c-8.952,6.477-15.896,14.807-20.713,24.829c-6.172-1.845-12.346-2.749-18.697-2.749c-4.673,0-9.401,0.516-14.059,1.534    c-11.055,2.15-21.003,6.933-29.664,14.249c-8.664-7.315-18.612-12.096-29.671-14.245c-4.655-1.016-9.381-1.531-14.048-1.531    c-6.355,0-12.534,0.905-18.709,2.753c-4.818-10.022-11.764-18.352-20.717-24.829c-9.276-7.1-19.524-11.383-31.138-12.985    c0.345-11.999-2.147-23.117-7.548-33.776c-1.729-3.697-3.738-7.205-6.012-10.494l9.055-5.582    c3.761-2.319,4.931-7.247,2.611-11.008c-2.318-3.761-7.246-4.932-11.008-2.612L94.266,309.7c-2.032,1.253-3.398,3.348-3.726,5.712    c-0.328,2.365,0.417,4.752,2.032,6.51c3.757,4.09,6.896,8.814,9.327,14.04c0.039,0.085,0.08,0.169,0.123,0.253    c5.166,10.151,6.909,20.917,5.33,32.912c-0.295,2.244,0.374,4.509,1.841,6.232c1.468,1.723,3.597,2.744,5.859,2.809    c11.702,0.338,21.623,3.753,30.329,10.441c0.064,0.049,0.13,0.098,0.195,0.146c8.554,6.164,14.492,14.236,18.156,24.676    c0.731,2.084,2.292,3.772,4.312,4.667s4.318,0.913,6.354,0.052c6.728-2.845,13.289-4.228,20.059-4.228    c3.548,0,7.153,0.397,10.716,1.181c0.067,0.015,0.136,0.029,0.203,0.042c10.46,2.016,19.292,6.94,27.002,15.054    c1.51,1.589,3.606,2.489,5.8,2.489c2.192,0,4.289-0.9,5.8-2.49c7.708-8.116,16.539-13.041,26.996-15.058    c0.068-0.013,0.137-0.027,0.205-0.042c3.562-0.784,7.168-1.182,10.72-1.182c6.768,0,13.325,1.381,20.049,4.224    c2.035,0.861,4.334,0.841,6.354-0.053c2.02-0.894,3.579-2.583,4.311-4.667c3.663-10.44,9.601-18.511,18.152-24.674    c0.066-0.048,0.131-0.097,0.196-0.146c8.705-6.688,18.623-10.104,30.322-10.444c2.263-0.066,4.391-1.086,5.858-2.81    s2.136-3.987,1.841-6.231c-1.579-11.994,0.163-22.758,5.326-32.907c0.043-0.083,0.084-0.167,0.123-0.252    c2.414-5.187,5.518-9.875,9.226-13.937c1.609-1.763,2.348-4.154,2.013-6.518C385.333,313.136,383.96,311.045,381.923,309.799z"/>
		<path d="M236.423,383.644c4.418,0,8-3.582,8-8v-41.5c0-4.418-3.582-8-8-8s-8,3.582-8,8v41.5    C228.423,380.063,232.005,383.644,236.423,383.644z"/>
		<path d="M299.302,352.301c1.563,1.562,3.609,2.343,5.657,2.343s4.095-0.781,5.657-2.343c3.124-3.124,3.124-8.189,0-11.313l-26-26    c-3.125-3.124-8.189-3.124-11.314,0c-3.124,3.124-3.124,8.189,0,11.313L299.302,352.301z"/>
		<path d="M168.734,354.644c2.048,0,4.095-0.781,5.657-2.343l26-26c3.124-3.124,3.124-8.189,0-11.313    c-3.125-3.124-8.189-3.124-11.314,0l-26,26c-3.124,3.124-3.124,8.189,0,11.313C164.64,353.863,166.686,354.644,168.734,354.644z"/>
		<path d="M420.36,291.11l-37.37-22.86c-21.87-13.38-46.23-22.91-73.55-28.74c26.21-6.89,51.39-17.64,74.7-32.01l36.3-22.38    c8.75-5.39,13.78-14.74,13.45-25.01c-0.32-10.28-5.94-19.31-15.02-24.15c-5.6-2.98-9.47-5.38-12.09-11.31    c-0.08-0.18-0.17-0.36-0.26-0.54c-3.29-6.15-2.31-11.06-0.96-17.85c1.78-8.91,3.99-20-5.94-32.81c-0.12-0.15-0.24-0.3-0.37-0.44    c-8.98-10-18.39-11.28-25.59-11.28c-1.97,0-8.97,0.37-10.5,0.37c-3.57,0-6.47-0.42-9.41-2.34c-1.94-1.22-2.96-2.18-3.48-2.67    c-3.16-2.94-4.15-6.68-5.46-12.47c-1.86-8.2-4.41-19.43-18.63-26.25c-0.15-0.07-0.31-0.14-0.47-0.21    c-4.25-1.71-8.3-2.54-12.36-2.54c-8.2,0-14.34,3.39-19.76,6.37c-4.21,2.32-7.85,4.33-11.81,4.33c-1.06,0-2.14-0.14-3.28-0.41    c-0.17-0.04-0.34-0.08-0.51-0.1c-5.35-0.93-7.82-3.9-12.06-9.51C260.87,9.62,253.94,0.48,238.3,0h-0.48    c-15.65,0.48-22.57,9.63-27.63,16.31c-4.24,5.6-6.71,8.57-12.06,9.5c-0.17,0.03-0.34,0.07-0.5,0.11    c-1.15,0.27-2.22,0.41-3.29,0.41c-3.96,0-7.59-2.01-11.8-4.33c-5.42-2.99-11.56-6.37-19.76-6.37c-4.06,0-8.11,0.83-12.36,2.54    c-0.16,0.07-0.32,0.14-0.47,0.21c-14.21,6.83-16.76,18.06-18.62,26.26c-1.43,6.28-2.47,10.15-6.31,13.21    c-0.29,0.22-1.43,1.25-3.41,2.4c-2.69,1.52-5.39,1.86-8.63,1.86c-1.53,0-8.53-0.37-10.49-0.37c-7.21,0-16.63,1.29-25.6,11.29    c-0.13,0.14-0.25,0.29-0.37,0.44c-9.93,12.81-7.72,23.9-5.94,32.81c1.36,6.79,2.34,11.69-0.95,17.84    c-0.09,0.18-0.18,0.36-0.26,0.54c-2.61,5.92-6.45,8.3-12.01,11.27c-9.1,4.85-14.71,13.89-15.01,24.19    c-0.31,10.29,4.75,19.64,13.53,25.01l37.37,22.86c23,14.07,47.8,24.63,73.61,31.45c-27.79,5.88-52.55,15.61-74.76,29.3    l-36.3,22.38c-8.75,5.39-13.78,14.74-13.45,25.01c0.32,10.28,5.94,19.31,15.02,24.15c5.6,2.98,9.47,5.38,12.09,11.31    c0.08,0.18,0.17,0.36,0.26,0.54c3.29,6.15,2.31,11.06,0.96,17.85c-1.78,8.91-3.99,20,5.94,32.81c0.12,0.15,0.24,0.3,0.37,0.44    c8.98,10,18.39,11.28,25.59,11.28c1.97,0,8.97-0.37,10.5-0.37c4.08,0,7.29,0.55,10.68,3.26c0.15,0.12,0.31,0.24,0.46,0.35    c4.59,3.16,5.68,7.12,7.21,13.87c1.86,8.2,4.41,19.43,18.63,26.25c0.15,0.07,0.31,0.14,0.47,0.21c4.25,1.71,8.3,2.54,12.36,2.54    c8.2,0,14.34-3.39,19.76-6.37c4.21-2.32,7.85-4.33,11.81-4.33c2.64,0,4.84,0.72,5.33,0.86c4.33,1.21,6.71,4.12,10.52,9.16    c5.06,6.68,11.99,15.82,27.63,16.3h0.48c15.65-0.48,22.57-9.63,27.63-16.31c3.91-5.17,6.32-8.1,10.87-9.25    c2.56-0.64,4.35-0.77,4.98-0.77c3.96,0,7.59,2.01,11.8,4.33c5.42,2.99,11.56,6.37,19.76,6.37c4.06,0,8.11-0.83,12.36-2.54    c0.16-0.07,0.32-0.14,0.47-0.21c14.21-6.83,16.76-18.06,18.62-26.26c1.28-5.62,2.25-9.31,5.19-12.22    c1.43-1.37,3.54-2.79,4.06-3.11c2.84-1.76,5.66-2.14,9.1-2.14c1.53,0,8.53,0.37,10.49,0.37c7.21,0,16.63-1.29,25.6-11.29    c0.13-0.14,0.25-0.29,0.37-0.44c9.93-12.81,7.72-23.9,5.94-32.81c-1.3-6.48-2.25-11.24,0.53-17.02c0.13-0.27,1.07-2.2,1.27-2.6    c2.59-5.03,6.26-7.28,11.42-10.03c9.1-4.85,14.71-13.89,15.01-24.19C434.2,305.83,429.14,296.48,420.36,291.11z M101.6,194.34    l-37.37-22.86c-3.82-2.34-6.02-6.41-5.89-10.88c0.13-4.49,2.58-8.44,6.55-10.56c7.06-3.76,14.34-8.3,18.99-18.64    c5.82-11.09,3.92-20.6,2.39-28.26c-1.52-7.64-2.54-12.72,2.72-19.64c4.4-4.81,8.3-5.76,13.5-5.76c1.54,0,8.53,0.37,10.49,0.37    c5.63,0,13.03-0.75,20.45-6.59c9.76-6.84,11.83-15.98,13.5-23.34c1.66-7.34,2.68-11.8,9.71-15.26c2.22-0.87,4.23-1.29,6.14-1.29    c4.09,0,7.77,2.03,12.03,4.38c5.37,2.96,11.46,6.32,19.53,6.32c2.23,0,4.51-0.27,6.78-0.8c11.65-2.11,17.29-9.57,21.83-15.57    c4.39-5.79,7.3-9.64,15.11-9.95c7.81,0.31,10.72,4.16,15.11,9.95c4.54,6,10.19,13.45,21.84,15.57c2.27,0.52,4.55,0.79,6.77,0.79    c8.08,0,14.17-3.36,19.54-6.32c4.26-2.35,7.94-4.38,12.03-4.38c1.91,0,3.92,0.42,6.15,1.29c7.03,3.46,8.04,7.92,9.7,15.26    c1.68,7.36,3.75,16.5,13.5,23.34c7.43,5.84,14.83,6.59,20.46,6.59c1.96,0,8.95-0.37,10.5-0.37c5.2,0,9.09,0.95,13.49,5.75    c5.26,6.93,4.25,12.01,2.72,19.65c-1.52,7.66-3.42,17.17,2.4,28.26c4.66,10.35,11.98,14.91,19.08,18.7    c3.96,2.1,6.41,6.04,6.55,10.52c0.14,4.47-2.05,8.54-5.86,10.89l-36.3,22.38c-23.92,14.74-49.93,25.43-77.01,31.8    c-1.43-6.74-3.95-13.08-7.35-18.84c26-5.79,50.97-15.87,73.87-29.99l16.72-10.31c2.04-1.25,3.4-3.35,3.73-5.71    c0.33-2.37-0.42-4.75-2.03-6.51c-3.76-4.09-6.9-8.82-9.33-14.04c-0.04-0.09-0.08-0.17-0.12-0.26    c-5.17-10.15-6.91-20.91-5.33-32.91c0.29-2.24-0.38-4.51-1.84-6.23c-1.47-1.72-3.6-2.74-5.86-2.81    c-11.7-0.34-21.63-3.75-30.33-10.44c-0.07-0.05-0.13-0.1-0.2-0.14c-8.55-6.17-14.49-14.24-18.15-24.68    c-0.73-2.08-2.3-3.77-4.31-4.67c-2.02-0.89-4.32-0.91-6.36-0.05c-6.73,2.85-13.29,4.23-20.06,4.23c-3.54,0-7.15-0.4-10.71-1.18    c-0.07-0.02-0.14-0.03-0.21-0.04c-10.45-2.02-19.29-6.94-27-15.06c-1.51-1.59-3.61-2.49-5.8-2.49c-2.19,0-4.29,0.9-5.8,2.49    c-7.71,8.12-16.54,13.04-26.99,15.06c-0.07,0.01-0.14,0.03-0.21,0.04c-3.56,0.79-7.17,1.19-10.72,1.19    c-6.77,0-13.32-1.39-20.05-4.23c-2.03-0.86-4.33-0.84-6.35,0.05c-2.02,0.9-3.58,2.59-4.31,4.67c-3.66,10.44-9.6,18.51-18.15,24.68    c-0.07,0.04-0.13,0.09-0.2,0.14c-8.7,6.69-18.62,10.11-30.32,10.45c-2.26,0.06-4.39,1.08-5.86,2.81    c-1.47,1.72-2.14,3.98-1.84,6.23c1.58,11.99-0.16,22.75-5.33,32.9c-0.04,0.09-0.08,0.17-0.12,0.26    c-2.41,5.18-5.52,9.87-9.23,13.93c-1.61,1.77-2.34,4.16-2.01,6.52c0.34,2.36,1.71,4.45,3.75,5.7l17.72,10.84    c22.1,13.52,46.11,23.3,71.1,29.09c-3.46,5.73-6.02,12.05-7.51,18.77C149.64,218.78,124.66,208.44,101.6,194.34z M129.61,112.33    c9.26-2.09,17.63-6.03,25.32-11.93c6.24-4.51,11.47-9.94,15.72-16.19l39.29,97.77c-4.38,2.11-8.48,4.71-12.23,7.73L129.61,112.33z     M174.54,187.6c-18.94-5.54-37.16-13.57-54.15-23.97l-10.03-6.13c2.22-3.25,4.2-6.7,5.9-10.34c3.04-6.01,5.16-12.17,6.37-18.55    L174.54,187.6z M185.27,77.69c3,0.42,6.01,0.64,9.07,0.64c4.67,0,9.4-0.52,14.06-1.54c7.79-1.51,15.03-4.34,21.66-8.44v107.87    c-1.65,0.18-3.28,0.43-4.89,0.74L185.27,77.69z M237.12,191.81c25.92,0,47,21.09,47,47c0,25.92-21.08,47-47,47s-47-21.08-47-47    C190.12,212.9,211.2,191.81,237.12,191.81z M246.06,176.46V68.34c6.64,4.1,13.88,6.93,21.67,8.45c4.66,1.01,9.39,1.53,14.05,1.53    c3.27,0,6.49-0.24,9.68-0.73l-40.13,99.86C249.6,177.05,247.84,176.71,246.06,176.46z M276.63,189.79    c-3.19-2.58-6.64-4.85-10.3-6.77l39.51-98.3c4.19,6.03,9.31,11.29,15.37,15.67c7.3,5.59,15.2,9.42,23.89,11.59L276.63,189.79z     M353.23,126.95c1.15,6.97,3.36,13.68,6.66,20.21c1.73,3.69,3.74,7.2,6.02,10.49l-9.06,5.58c-18.06,11.13-37.49,19.58-57.72,25.2    L353.23,126.95z M411.35,326.2c-7.06,3.76-14.34,8.3-18.99,18.64c-5.82,11.09-3.92,20.6-2.39,28.26    c1.52,7.64,2.54,12.72-2.72,19.64c-4.4,4.81-8.3,5.76-13.5,5.76c-1.54,0-8.53-0.37-10.49-0.37c-5.63,0-13.03,0.75-20.45,6.59    c-9.76,6.84-11.83,15.98-13.5,23.34c-1.66,7.34-2.68,11.8-9.71,15.26c-2.22,0.87-4.23,1.29-6.14,1.29    c-4.09,0-7.77-2.03-12.03-4.38c-5.37-2.96-11.46-6.32-19.53-6.32c-2.23,0-4.51,0.27-6.78,0.8c-11.65,2.11-17.29,9.57-21.83,15.57    c-4.39,5.79-7.3,9.64-15.11,9.95c-7.81-0.31-10.72-4.16-15.11-9.95c-4.54-6-10.19-13.45-21.84-15.57    c-2.27-0.52-4.55-0.79-6.77-0.79c-8.08,0-14.17,3.36-19.54,6.32c-4.26,2.35-7.94,4.38-12.03,4.38c-1.91,0-3.92-0.42-6.15-1.29    c-7.03-3.46-8.04-7.92-9.7-15.26c-1.68-7.35-3.75-16.5-13.5-23.34c-7.43-5.84-14.83-6.59-20.46-6.59c-1.96,0-8.95,0.37-10.5,0.37    c-5.2,0-9.09-0.95-13.49-5.75c-5.26-6.93-4.25-12.01-2.72-19.65c1.52-7.66,3.42-17.17-2.4-28.26    c-4.66-10.35-11.98-14.91-19.08-18.7c-3.96-2.1-6.41-6.04-6.55-10.52c-0.14-4.47,2.05-8.54,5.86-10.89l36.3-22.38    c22.12-13.64,47.11-23.05,75.47-28.41c6.8,27.45,31.63,47.86,61.15,47.86c29.63,0,54.53-20.56,61.22-48.16    c28.73,5.24,53.98,14.6,76.3,28.25l37.37,22.86c3.82,2.34,6.02,6.41,5.89,10.88C417.77,320.13,415.32,324.08,411.35,326.2z"/>
	</g>
</g>















</svg>