<?xml version="1.0" encoding="utf-8"?>

<!DOCTYPE svg PUBLIC "-//W3C//DTD SVG 1.1//EN" "http://www.w3.org/Graphics/SVG/1.1/DTD/svg11.dtd">
<!-- Uploaded to: SVG Repo, www.svgrepo.com, Generator: SVG Repo Mixer Tools -->
<svg height="800px" width="800px" version="1.1" id="_x32_" xmlns="http://www.w3.org/2000/svg" xmlns:xlink="http://www.w3.org/1999/xlink" 
	 viewBox="0 0 512 512"  xml:space="preserve">
<style type="text/css">
	.st0{fill:#000000;}
</style>
<g>
	<path class="st0" d="M97.092,475.308c-3.254,3.245-8.523,3.245-11.76,0l-48.642-48.642c-3.236-3.236-3.236-8.505,0-11.751
		l46.459-46.458l-24.22-24.22l-46.458,46.45c-16.626,16.644-16.626,43.573,0,60.208l48.642,48.642
		c16.635,16.618,43.565,16.618,60.2,0l46.458-46.459l-24.22-24.22L97.092,475.308z"/>
	<path class="st0" d="M302.471,0l-12.027,14.252L79.604,264.032c-23.158,27.498-21.452,68.12,3.956,93.552l70.854,70.854
		c25.441,25.408,66.063,27.115,93.545,3.956l264.04-222.859L302.471,0z M225.863,406.209c-13.866,11.693-34.398,10.84-47.22-1.999
		l-70.854-70.863c-12.83-12.813-13.699-33.362-1.99-47.219l31.596-37.434l125.911,125.91L225.863,406.209z M329.025,319.13
		L192.861,182.974l84.93-100.611l151.845,151.846L329.025,319.13z M288.873,69.224l15.731-18.625l156.805,156.797l-18.634,15.723
		L288.873,69.224z"/>
</g>
</svg>