<?xml version="1.0" encoding="utf-8"?><!-- Uploaded to: SVG Repo, www.svgrepo.com, Generator: SVG Repo Mixer Tools -->
<svg fill="#000000" width="800px" height="800px" viewBox="0 0 24 24" id="paint-brush" data-name="Flat Line" xmlns="http://www.w3.org/2000/svg" class="icon flat-line"><path id="secondary" d="M15.12,11.7,6.41,20.41a2,2,0,0,1-2.82-2.82l8.69-8.7a3.93,3.93,0,0,0,1,1.71A4.29,4.29,0,0,0,15.12,11.7Z" style="fill: rgb(44, 169, 188); stroke-width: 2;"></path><path id="primary" d="M12.19,9l-8.6,8.61a2,2,0,0,0,0,2.82h0a2,2,0,0,0,2.82,0L15,11.79" style="fill: none; stroke: rgb(0, 0, 0); stroke-linecap: round; stroke-linejoin: round; stroke-width: 2;"></path><path id="primary-2" data-name="primary" d="M18.37,11a3.62,3.62,0,0,1-5.1-.38,4.21,4.21,0,0,1-.06-5.75A5.51,5.51,0,0,1,21,4.45C19.27,7,19.94,9.41,18.37,11Z" style="fill: none; stroke: rgb(0, 0, 0); stroke-linecap: round; stroke-linejoin: round; stroke-width: 2;"></path></svg>