<?xml version="1.0" encoding="utf-8"?>

<!DOCTYPE svg PUBLIC "-//W3C//DTD SVG 1.1//EN" "http://www.w3.org/Graphics/SVG/1.1/DTD/svg11.dtd">
<!-- Uploaded to: SVG Repo, www.svgrepo.com, Generator: SVG Repo Mixer Tools -->
<svg height="800px" width="800px" version="1.1" id="_x32_" xmlns="http://www.w3.org/2000/svg" xmlns:xlink="http://www.w3.org/1999/xlink" 
	 viewBox="0 0 512 512"  xml:space="preserve">
<style type="text/css">
	.st0{fill:#000000;}
</style>
<g>
	<path class="st0" d="M447.287,42.137l-58.7-37.075c-15.267-9.657-35.539-5.08-45.184,10.191l-29.597,46.85
		c-12.209,3.272-34.996,11.23-55.799,28.844c-0.22,0.134-0.444,0.33-0.633,0.613l-11.618,16.325L78.123,345.067l-28.662,40.922
		L248.937,512l24.648-43.462L415.787,215.29l9.743-17.496c0.172-0.299,0.255-0.582,0.287-0.842
		c6.991-26.508,4.372-50.405,2.052-62.758l29.613-46.882C467.131,72.042,462.554,51.786,447.287,42.137z M243.047,488.142
		L73.539,381.058l21.797-30.982L261.66,455.147L243.047,488.142z M267.046,446.623L100.723,341.552l162.324-228.605l140.732,88.904
		L267.046,446.623z M409.165,193.327l-140.731-88.904c26.036-22.34,56.004-27.27,56.004-27.27l85.298,53.88
		C409.735,131.033,418.146,160.214,409.165,193.327z M443.088,78.23l-27.966,44.279l-85.295-53.888l27.966-44.279
		c4.64-7.329,14.362-9.53,21.704-4.899l58.696,37.084C445.534,61.174,447.732,70.878,443.088,78.23z"/>
	<polygon class="st0" points="195.119,281.854 280.414,335.734 347.764,229.121 262.474,175.241 	"/>
</g>
</svg>